<?xml version="1.0" standalone="no"?>
<!DOCTYPE svg PUBLIC "-//W3C//DTD SVG 20010904//EN"
 "http://www.w3.org/TR/2001/REC-SVG-20010904/DTD/svg10.dtd">
<svg version="1.0" xmlns="http://www.w3.org/2000/svg"
 width="512.000000pt" height="512.000000pt" viewBox="0 0 512.000000 512.000000"
 preserveAspectRatio="xMidYMid meet">

<g transform="translate(0.000000,512.000000) scale(0.100000,-0.100000)"
fill="#000000" stroke="none">
<path d="M1649 5091 l-29 -29 0 -252 0 -252 29 -29 c31 -31 59 -36 94 -17 45
24 46 31 47 295 0 138 -3 259 -6 268 -8 19 -55 45 -84 45 -12 0 -35 -13 -51
-29z"/>
<path d="M2517 5109 c-40 -23 -47 -67 -47 -299 0 -170 3 -229 15 -255 28 -68
115 -70 147 -5 16 30 18 66 18 258 0 237 -7 279 -48 301 -26 14 -62 14 -85 0z"/>
<path d="M3375 5108 c-44 -24 -45 -30 -45 -297 1 -269 2 -275 47 -299 35 -19
63 -14 94 17 l29 29 0 252 0 252 -29 29 c-31 30 -62 36 -96 17z"/>
<path d="M1235 4239 c-178 -26 -329 -180 -355 -364 -13 -95 -13 -2535 0 -2630
27 -189 176 -338 365 -365 95 -13 2535 -13 2630 0 189 27 338 176 365 365 13
95 13 2535 0 2630 -27 189 -176 338 -365 365 -87 12 -2554 11 -2640 -1z m1567
-1128 c167 -44 325 -129 433 -234 43 -42 55 -60 55 -84 0 -45 -9 -62 -42 -79
-36 -18 -78 -11 -104 18 -58 64 -201 154 -300 189 -293 102 -613 40 -842 -166
-58 -52 -89 -62 -130 -41 -33 17 -42 34 -42 79 0 24 11 42 53 82 127 123 309
215 496 250 106 20 321 13 423 -14z m-51 -453 c82 -30 193 -108 215 -150 30
-58 -8 -118 -75 -118 -22 0 -44 6 -51 15 -6 8 -35 30 -63 48 -147 96 -321 89
-459 -18 -66 -51 -114 -59 -148 -25 -51 51 -30 107 64 174 115 83 199 107 346
102 81 -2 120 -9 171 -28z m-125 -377 c61 -28 89 -73 89 -143 0 -95 -58 -153
-155 -153 -63 0 -95 16 -134 69 -31 41 -29 130 3 175 26 36 90 71 131 71 14 0
43 -9 66 -19z"/>
<path d="M29 3471 c-16 -16 -29 -39 -29 -51 0 -29 26 -76 45 -84 9 -3 130 -6
268 -6 264 1 271 2 295 47 19 35 14 63 -17 94 l-29 29 -252 0 -252 0 -29 -29z"/>
<path d="M4529 3471 c-31 -31 -36 -59 -17 -94 24 -45 31 -46 295 -47 138 0
259 3 268 6 19 8 45 55 45 84 0 12 -13 35 -29 51 l-29 29 -252 0 -252 0 -29
-29z"/>
<path d="M50 2632 c-66 -33 -66 -111 0 -144 30 -16 66 -18 260 -18 194 0 230
2 260 18 65 32 63 119 -5 147 -26 12 -85 15 -257 15 -192 0 -228 -2 -258 -18z"/>
<path d="M4550 2632 c-65 -32 -63 -119 5 -147 26 -12 85 -15 257 -15 247 0
283 7 302 63 14 40 -3 79 -44 99 -30 16 -66 18 -260 18 -194 0 -230 -2 -260
-18z"/>
<path d="M42 1783 c-17 -6 -42 -57 -42 -83 0 -12 13 -35 29 -51 l29 -29 252 0
252 0 29 29 c31 31 36 59 17 94 -24 45 -30 46 -298 46 -140 0 -261 -3 -268 -6z"/>
<path d="M4539 1777 c-46 -35 -50 -88 -10 -128 l29 -29 252 0 252 0 29 29 c16
16 29 39 29 51 0 29 -26 76 -45 84 -9 3 -130 6 -268 6 -182 -1 -256 -4 -268
-13z"/>
<path d="M1649 591 l-29 -29 0 -252 0 -252 29 -29 c16 -16 39 -29 51 -29 29 0
76 26 84 45 3 9 6 130 6 268 -1 264 -2 271 -47 295 -35 19 -63 14 -94 -17z"/>
<path d="M2522 610 c-45 -18 -52 -61 -52 -302 0 -247 7 -283 63 -302 40 -14
79 3 99 44 16 30 18 66 18 258 0 245 -7 284 -55 302 -31 12 -42 12 -73 0z"/>
<path d="M3375 608 c-43 -25 -44 -33 -45 -295 0 -138 3 -259 6 -268 8 -19 55
-45 84 -45 12 0 35 13 51 29 l29 29 0 252 0 252 -29 29 c-31 30 -63 36 -96 17z"/>
</g>
</svg>
